<?xml version="1.0" encoding="utf-8"?>
<!-- Generator: Adobe Illustrator 24.3.0, SVG Export Plug-In . SVG Version: 6.00 Build 0)  -->
<svg version="1.1" id="Ebene_1" xmlns="http://www.w3.org/2000/svg" xmlns:xlink="http://www.w3.org/1999/xlink" x="0px" y="0px"
	 viewBox="0 0 1364 283" style="enable-background:new 0 0 1364 283;" xml:space="preserve">
<path d="M473.2,219.1h-0.6l-37-147.5H392l-36.9,147.5h-0.6L320.2,71.5h-45.8L332,278.1h43.3l38.1-141.2h0.8l38.1,141.2h43.6
	l57.5-206.5h-45.8L473.2,219.1L473.2,219.1z M1020.6,68.2c-54.6,0-87.3,35.3-87.3,94.4v25c0,59.8,32.5,93.9,87.1,93.9
	c54.8,0,82.1-33.3,82.1-70.5v-3.8h-41.1c0,21.3-10.6,38-40.2,38c-29.8,0-44.3-18.3-44.3-57.6v-25c0-38.9,14.7-58.4,44-58.4
	c27.5,0,40.5,18.1,40.5,38.6h41.1v-2.1C1102.5,100.4,1071.9,68.2,1020.6,68.2L1020.6,68.2z M622.7,71.5l-66.8,206.5h42.9l15-52h65.5
	l14.8,52h46L673.5,71.5H622.7L622.7,71.5z M623,194.2l23.6-82h0.4l23.3,82H623L623,194.2z M1275.8,154.4h-84.7V71.5h-42.9V278h42.9
	V190h84.7V278h43.1V71.5h-43.1V154.4z M739.4,107.2H801v170.8h42.8V107.2h61.8V71.5H739.4L739.4,107.2L739.4,107.2z M193.9,149.7
	c-0.3-35.6,29.2-52.8,30.5-53.6c-16.8-24.6-42.6-27.3-51.8-28c-23.3-1.7-43,13-54,13c-11.2,0-28.4-12.6-46.7-12.3
	c-24,0.4-46.1,13.9-58.4,35.4c-24.9,43.1-6.4,107,17.9,142c11.9,17.1,26,36.4,44.6,35.7c17.9-0.7,24.7-11.5,46.3-11.5
	c21.6,0,27.7,11.5,46.6,11.2c19.3-0.3,31.5-17.4,43.2-34.7c13.6-19.8,19.3-39,19.6-40.1C231.4,206.5,194.2,192.3,193.9,149.7
	L193.9,149.7z M158.3,45c9.9-11.9,16.5-28.5,14.7-45c-14.2,0.6-31.4,9.4-41.6,21.3c-9.1,10.5-17.2,27.4-15,43.6
	C132.2,66.1,148.4,56.9,158.3,45L158.3,45z"/>
</svg>
